<svg xmlns="http://www.w3.org/2000/svg" width="1168" height="784" viewBox="0 0 1168 784"><rect width="1168" height="784" fill="#0b1b33"/><rect x="36" y="28" width="174" height="34" rx="10" fill="#183a66" stroke="#288cbe"/><text x="48" y="50" font-size="18" fill="#40c4ff" font-family="Noto Sans CJK SC, PingFang SC, Hiragino Sans GB, sans-serif">02 · 社会</text><text x="230" y="48" font-size="28" fill="#ebf2ff" font-family="Noto Sans CJK SC, PingFang SC, Hiragino Sans GB, sans-serif">房地产·社会层</text><text x="230" y="78" font-size="16" fill="#a0b4d2" font-family="Noto Sans CJK SC, PingFang SC, Hiragino Sans GB, sans-serif">安居 · 地方财政 · 建筑就业</text><rect x="36" y="118" width="540" height="294" rx="14" fill="#123056" stroke="#288cbe" stroke-width="2"/><rect x="36" y="118" width="8" height="294" fill="#40c4ff"/><text x="58" y="154" font-size="20" fill="#ebf2ff" font-family="Noto Sans CJK SC, PingFang SC, Hiragino Sans GB, sans-serif">居住成本</text><text font-size="15" fill="#a0b4d2" font-family="Noto Sans CJK SC, PingFang SC, Hiragino Sans GB, sans-serif"><tspan x="58" y="182">青年安居感受</tspan></text><rect x="592" y="118" width="540" height="294" rx="14" fill="#123056" stroke="#288cbe" stroke-width="2"/><rect x="592" y="118" width="8" height="294" fill="#40c4ff"/><text x="614" y="154" font-size="20" fill="#ebf2ff" font-family="Noto Sans CJK SC, PingFang SC, Hiragino Sans GB, sans-serif">土地财政</text><text font-size="15" fill="#a0b4d2" font-family="Noto Sans CJK SC, PingFang SC, Hiragino Sans GB, sans-serif"><tspan x="614" y="182">公共投资能力</tspan></text><rect x="36" y="426" width="540" height="294" rx="14" fill="#123056" stroke="#288cbe" stroke-width="2"/><rect x="36" y="426" width="8" height="294" fill="#40c4ff"/><text x="58" y="462" font-size="20" fill="#ebf2ff" font-family="Noto Sans CJK SC, PingFang SC, Hiragino Sans GB, sans-serif">行业就业</text><text font-size="15" fill="#a0b4d2" font-family="Noto Sans CJK SC, PingFang SC, Hiragino Sans GB, sans-serif"><tspan x="58" y="490">建筑中介物业</tspan></text><rect x="592" y="426" width="540" height="294" rx="14" fill="#123056" stroke="#288cbe" stroke-width="2"/><rect x="592" y="426" width="8" height="294" fill="#40c4ff"/><text x="614" y="462" font-size="20" fill="#ebf2ff" font-family="Noto Sans CJK SC, PingFang SC, Hiragino Sans GB, sans-serif">社区品质</text><text font-size="15" fill="#a0b4d2" font-family="Noto Sans CJK SC, PingFang SC, Hiragino Sans GB, sans-serif"><tspan x="614" y="490">物业与配套</tspan></text><line x1="36" y1="742" x2="1132" y2="742" stroke="#326ea0"/><text x="36" y="762" font-size="15" fill="#a0b4d2" font-family="Noto Sans CJK SC, PingFang SC, Hiragino Sans GB, sans-serif">专题配图 · 单城行情不外推全国</text></svg>
