<svg xmlns="http://www.w3.org/2000/svg" width="1168" height="784" viewBox="0 0 1168 784"><rect width="1168" height="784" fill="#0b1b33"/><rect x="36" y="28" width="174" height="34" rx="10" fill="#183a66" stroke="#288cbe"/><text x="48" y="50" font-size="18" fill="#40c4ff" font-family="Noto Sans CJK SC, PingFang SC, Hiragino Sans GB, sans-serif">01 · 国家</text><text x="230" y="48" font-size="28" fill="#ebf2ff" font-family="Noto Sans CJK SC, PingFang SC, Hiragino Sans GB, sans-serif">金属·国家层</text><text x="230" y="78" font-size="16" fill="#a0b4d2" font-family="Noto Sans CJK SC, PingFang SC, Hiragino Sans GB, sans-serif">资源安全 · 工业底座 · 绿色约束</text><line x1="220" y1="185" x2="584" y2="412" stroke="#326ea0" stroke-width="2"/><rect x="80" y="130" width="280" height="110" rx="12" fill="#123056" stroke="#288cbe" stroke-width="2"/><text x="96" y="166" font-size="18" fill="#ebf2ff" font-family="Noto Sans CJK SC, PingFang SC, Hiragino Sans GB, sans-serif">供给安全</text><text font-size="14" fill="#a0b4d2" font-family="Noto Sans CJK SC, PingFang SC, Hiragino Sans GB, sans-serif"><tspan x="96" y="188">储量冶炼回收</tspan></text><line x1="584" y1="185" x2="584" y2="412" stroke="#326ea0" stroke-width="2"/><rect x="444" y="130" width="280" height="110" rx="12" fill="#123056" stroke="#288cbe" stroke-width="2"/><text x="460" y="166" font-size="18" fill="#ebf2ff" font-family="Noto Sans CJK SC, PingFang SC, Hiragino Sans GB, sans-serif">能耗双控</text><text font-size="14" fill="#a0b4d2" font-family="Noto Sans CJK SC, PingFang SC, Hiragino Sans GB, sans-serif"><tspan x="460" y="188">冶炼布局</tspan></text><line x1="948" y1="185" x2="584" y2="412" stroke="#326ea0" stroke-width="2"/><rect x="808" y="130" width="280" height="110" rx="12" fill="#123056" stroke="#288cbe" stroke-width="2"/><text x="824" y="166" font-size="18" fill="#ebf2ff" font-family="Noto Sans CJK SC, PingFang SC, Hiragino Sans GB, sans-serif">进口依赖</text><text font-size="14" fill="#a0b4d2" font-family="Noto Sans CJK SC, PingFang SC, Hiragino Sans GB, sans-serif"><tspan x="824" y="188">矿汇运费</tspan></text><line x1="220" y1="589" x2="584" y2="412" stroke="#326ea0" stroke-width="2"/><rect x="80" y="534" width="280" height="110" rx="12" fill="#123056" stroke="#288cbe" stroke-width="2"/><text x="96" y="570" font-size="18" fill="#ebf2ff" font-family="Noto Sans CJK SC, PingFang SC, Hiragino Sans GB, sans-serif">贸易工具</text><text font-size="14" fill="#a0b4d2" font-family="Noto Sans CJK SC, PingFang SC, Hiragino Sans GB, sans-serif"><tspan x="96" y="592">关税收储</tspan></text><line x1="584" y1="589" x2="584" y2="412" stroke="#326ea0" stroke-width="2"/><rect x="444" y="534" width="280" height="110" rx="12" fill="#123056" stroke="#288cbe" stroke-width="2"/><text x="460" y="570" font-size="18" fill="#ebf2ff" font-family="Noto Sans CJK SC, PingFang SC, Hiragino Sans GB, sans-serif">新能源相关</text><text font-size="14" fill="#a0b4d2" font-family="Noto Sans CJK SC, PingFang SC, Hiragino Sans GB, sans-serif"><tspan x="460" y="592">铜铝电网</tspan></text><line x1="948" y1="589" x2="584" y2="412" stroke="#326ea0" stroke-width="2"/><rect x="808" y="534" width="280" height="110" rx="12" fill="#123056" stroke="#288cbe" stroke-width="2"/><text x="824" y="570" font-size="18" fill="#ebf2ff" font-family="Noto Sans CJK SC, PingFang SC, Hiragino Sans GB, sans-serif">定价</text><text font-size="14" fill="#a0b4d2" font-family="Noto Sans CJK SC, PingFang SC, Hiragino Sans GB, sans-serif"><tspan x="824" y="592">国际市场</tspan></text><rect x="444" y="332" width="280" height="160" rx="18" fill="#183a66" stroke="#40c4ff" stroke-width="3"/><text x="584" y="394" text-anchor="middle" font-size="22" fill="#40c4ff" font-family="Noto Sans CJK SC, PingFang SC, Hiragino Sans GB, sans-serif">工业原料</text><text x="584" y="430" text-anchor="middle" font-size="16" fill="#ebf2ff" font-family="Noto Sans CJK SC, PingFang SC, Hiragino Sans GB, sans-serif">制造建筑 电力底座</text><line x1="36" y1="742" x2="1132" y2="742" stroke="#326ea0"/><text x="36" y="762" font-size="15" fill="#a0b4d2" font-family="Noto Sans CJK SC, PingFang SC, Hiragino Sans GB, sans-serif">专题配图 · 政策≠自动利润</text></svg>
